<svg xmlns="http://www.w3.org/2000/svg" xmlns:xlink="http://www.w3.org/1999/xlink" version="1.1" x="0px" y="0px" viewBox="0 0 128 160" style="enable-background:new 0 0 128 128;" xml:space="preserve"><g><circle style="" cx="116.0028839" cy="8" r="2" fill-rule="evenodd" clip-rule="evenodd"/><circle style="" cx="108.0028839" cy="8" r="2" fill-rule="evenodd" clip-rule="evenodd"/></g><path style="" d="M120,0H8C3.5995851,0,0,3.5996001,0,8v112c0,4.4003983,3.5995851,8,8,8h112  c4.400383,0,8-3.5996017,8-8V8C128,3.5996001,124.400383,0,120,0z M23.9872837,73.3506012c0-1.1044998,0.8955002-2,2-2h1.5  c1.1044998,0,2,0.8955002,2,2s-0.8955002,2-2,2h-1.5C24.8827839,75.3506012,23.9872837,74.455101,23.9872837,73.3506012z   M23.9872837,60.875c0-1.1044998,0.8955002-2,2-2h1.5c1.1044998,0,2,0.8955002,2,2s-0.8955002,2-2,2h-1.5  C24.8827839,62.875,23.9872837,61.9794998,23.9872837,60.875z M28.4745846,87.8281021h-1.5c-1.1044998,0-2-0.8955002-2-2  s0.8955002-2,2-2h1.5c1.1044998,0,2,0.8955002,2,2S29.5790844,87.8281021,28.4745846,87.8281021z M32.078083,50.1591988  L24.0770836,46C23.4150009,45.6562996,23,44.9716988,23,44.2256012c0-0.7461014,0.4150009-1.4307022,1.0770836-1.7744026  l8.0009995-4.1591988c0.9805031-0.5107002,2.1875-0.1278992,2.6973,0.8516006c0.5098,0.9804001,0.127903,2.1875-0.8516006,2.6972008  l-4.5878983,2.3848l4.5878983,2.3848c0.9795036,0.509697,1.3614006,1.7166977,0.8516006,2.697197  C34.4188843,49.9921989,33.7216835,50.3848,32.9990005,50.3848C32.6884842,50.3848,32.3730011,50.3125,32.078083,50.1591988z   M35.4892845,58.875h3c1.1044998,0,2,0.8955002,2,2s-0.8955002,2-2,2h-3c-1.1044998,0-2-0.8955002-2-2  S34.3847847,58.875,35.4892845,58.875z M33.4892845,73.3506012c0-1.1044998,0.8955002-2,2-2h3c1.1044998,0,2,0.8955002,2,2  s-0.8955002,2-2,2h-3C34.3847847,75.3506012,33.4892845,74.455101,33.4892845,73.3506012z M40.3710823,87.8281021h-3.2440834  c-1.1045151,0-2-0.8955002-2-2s0.8954849-2,2-2h3.2440834c1.1044998,0,2,0.8955002,2,2S41.4755821,87.8281021,40.3710823,87.8281021  z M41.5233841,50.4766006c-0.813385,0.0067978-1.5116997-0.6387024-1.4628983-1.5381012  c0.0439987-0.7626991,0.6308975-1.3368988,1.4257965-1.3564987c0.857502-0.0214996,1.5166016,0.6562996,1.4854012,1.5048981  C42.9442825,49.8778992,42.2694855,50.4863014,41.5233841,50.4766006z M43.3446846,41.1641006  c-0.1211014,0.9921989-0.2539024,1.9852982-0.3799019,2.9764977c-0.0839005,0.6631012-0.169899,1.3262024-0.2538986,1.9864006  c-0.0205002,0.1777-0.0340996,0.1884003-0.2578011,0.1884003c-0.6376991,0.0020027-1.2753983,0.0020027-1.9130821,0  c-0.224617,0-0.2392159-0.0126991-0.2607155-0.1865005c-0.1055031-0.8485985-0.7637024-6.5780983-0.7637024-6.5780983  c0.0908012-0.875,0.8838005-1.5254021,1.955101-1.5498009c1.0889015-0.0224991,1.9346008,0.6562004,2.0331993,1.5498009  c0.0078011,0.0780983,0.0116997,0.1543007,0.0116997,0.2313995C43.5194855,40.2450981,43.3993835,40.7070007,43.3446846,41.1641006z   M44.4911842,73.3506012c0-1.1044998,0.8955002-2,2-2h3c1.1044998,0,2,0.8955002,2,2s-0.8955002,2-2,2h-3  C45.3866844,75.3506012,44.4911842,74.455101,44.4911842,73.3506012z M49.4911842,58.875c1.1044998,0,2,0.8955002,2,2  s-0.8955002,2-2,2h-3c-1.1044998,0-2-0.8955002-2-2s0.8955002-2,2-2H49.4911842z M48.5175819,44.2383003  c0-1.1044998,0.8955002-2,2-2h1.5c1.1045036,0,2,0.8955002,2,2s-0.8954964,2-2,2h-1.5  C49.4130821,46.2383003,48.5175819,45.3428001,48.5175819,44.2383003z M52.2685852,87.8281021h-3.2452011  c-1.1044998,0-2-0.8955002-2-2s0.8955002-2,2-2h3.2452011c1.1044159,0,2,0.8955002,2,2S53.3730011,87.8281021,52.2685852,87.8281021  z M55.4931831,73.3506012c0-1.1044998,0.8955002-2,2-2h3c1.1044998,0,2,0.8955002,2,2s-0.8955002,2-2,2h-3  C56.3886833,75.3506012,55.4931831,74.455101,55.4931831,73.3506012z M55.4931831,60.875c0-1.1044998,0.8955002-2,2-2h3  c1.1044998,0,2,0.8955002,2,2s-0.8955002,2-2,2h-3C56.3886833,62.875,55.4931831,61.9794998,55.4931831,60.875z   M64.1660004,87.8281021h-3.2451172c-1.1044998,0-2-0.8955002-2-2s0.8955002-2,2-2h3.2451172c1.1044846,0,2,0.8955002,2,2  S65.2704849,87.8281021,64.1660004,87.8281021z M64.2987823,46.2383003h-3.3495979c-1.1044998,0-2-0.8955002-2-2s0.8955002-2,2-2  h3.3495979c1.1044998,0,2,0.8955002,2,2S65.4032822,46.2383003,64.2987823,46.2383003z M66.4950867,73.3506012  c0-1.1044998,0.8955002-2,2-2h3c1.1044998,0,2,0.8955002,2,2s-0.8955002,2-2,2h-3  C67.3905869,75.3506012,66.4950867,74.455101,66.4950867,73.3506012z M76.5790863,46.2383003H73.230484  c-1.1044846,0-2-0.8955002-2-2s0.8955154-2,2-2h3.3486023c1.1044998,0,2,0.8955002,2,2S77.6835861,46.2383003,76.5790863,46.2383003  z M79.4970856,58.875h3c1.1044998,0,2,0.8955002,2,2s-0.8955002,2-2,2h-3c-1.1044998,0-2-0.8955002-2-2  S78.3925858,58.875,79.4970856,58.875z M71.4950867,58.875c1.1044998,0,2,0.8955002,2,2s-0.8955002,2-2,2h-3  c-1.1044998,0-2-0.8955002-2-2s0.8955002-2,2-2H71.4950867z M76.0624847,87.8281021h-3.2441025c-1.1044998,0-2-0.8955002-2-2  s0.8955002-2,2-2h3.2441025c1.1045151,0,2,0.8955002,2,2S77.1669998,87.8281021,76.0624847,87.8281021z M79.4970856,75.3506012  c-1.1044998,0-2-0.8955002-2-2s0.8955002-2,2-2h3c1.1044998,0,2,0.8955002,2,2s-0.8955002,2-2,2H79.4970856z M86.2147827,87.8281021  h-1.5c-1.1044006,0-2-0.8955002-2-2s0.8955994-2,2-2h1.5c1.1044998,0,2,0.8955002,2,2S87.3192825,87.8281021,86.2147827,87.8281021z   M87.0106812,46.2383003h-1.5c-1.1044006,0-2-0.8955002-2-2s0.8955994-2,2-2h1.5c1.1044998,0,2,0.8955002,2,2  S88.115181,46.2383003,87.0106812,46.2383003z M93.0888824,41.8408012  c-0.9794998-0.5097008-1.3613968-1.7168007-0.8516006-2.6972008c0.5098038-0.9794998,1.714798-1.3623009,2.6973038-0.8516006  l8.0009003,4.1591988c0.6621933,0.3437004,1.0771942,1.0283012,1.0771942,1.7744026  c0,0.7460976-0.4150009,1.4306984-1.0771942,1.7743988l-8.0009003,4.1591988  C94.6395798,50.3125,94.3241806,50.3848,94.0136795,50.3848c-0.7226791,0-1.419899-0.392601-1.7763977-1.0772018  c-0.5097961-0.9804993-0.1278992-2.1875,0.8516006-2.697197l4.5878983-2.3848L93.0888824,41.8408012z M93.4990005,58.875  c1.1044846,0,2,0.8955002,2,2s-0.8955154,2-2,2h-3.0009995c-1.1044159,0-2-0.8955002-2-2s0.8955841-2,2-2H93.4990005z   M88.4980011,73.3506012c0-1.1044998,0.8955841-2,2-2h3.0009995c1.1044846,0,2,0.8955002,2,2s-0.8955154,2-2,2h-3.0009995  C89.3935852,75.3506012,88.4980011,74.455101,88.4980011,73.3506012z M103.9315796,87.6103973l-7.8983994,4.1591034  C95.7362823,91.9257965,95.4169998,92,95.1034851,92c-0.7187042,0-1.4131012-0.3877029-1.7714844-1.0683975  c-0.5146179-0.9775009-0.1396179-2.1865005,0.837883-2.7011032l4.5381165-2.3897018l-4.5381165-2.389595  c-0.9775009-0.5147018-1.3525009-1.7237015-0.837883-2.7012024c0.514679-0.9775009,1.7216797-1.3535004,2.7011795-0.8378983  l7.8983994,4.1591949C104.5888824,84.4169998,105,85.0986023,105,85.8407974  C105,86.5830002,104.5888824,87.2646027,103.9315796,87.6103973z M103,75.3506012h-1.5c-1.1045151,0-2-0.8955002-2-2  s0.8954849-2,2-2h1.5c1.1044846,0,2,0.8955002,2,2S104.1044846,75.3506012,103,75.3506012z M103,62.875h-1.5  c-1.1045151,0-2-0.8955002-2-2s0.8954849-2,2-2h1.5c1.1044846,0,2,0.8955002,2,2S104.1044846,62.875,103,62.875z M124,12H4V8  c0-2.2061,1.7938848-4,4-4h112c2.2060852,0,4,1.7939,4,4V12z" fill-rule="evenodd" clip-rule="evenodd"/><text x="0" y="143" fill="#000000" font-size="5px" font-weight="bold" font-family="'Helvetica Neue', Helvetica, Arial-Unicode, Arial, Sans-serif">Created by priyanka</text><text x="0" y="148" fill="#000000" font-size="5px" font-weight="bold" font-family="'Helvetica Neue', Helvetica, Arial-Unicode, Arial, Sans-serif">from the Noun Project</text></svg>