<svg xmlns="http://www.w3.org/2000/svg" xmlns:xlink="http://www.w3.org/1999/xlink" version="1.1" x="0px" y="0px" viewBox="0 0 64 80" style="enable-background:new 0 0 64 64;" xml:space="preserve"><path d="M62,8V2H2v6H62z M59,4c0.6,0,1,0.4,1,1c0,0.6-0.4,1-1,1s-1-0.4-1-1C58,4.4,58.4,4,59,4z M55,4c0.6,0,1,0.4,1,1  c0,0.6-0.4,1-1,1s-1-0.4-1-1C54,4.4,54.4,4,55,4z M51,4c0.6,0,1,0.4,1,1c0,0.6-0.4,1-1,1s-1-0.4-1-1C50,4.4,50.4,4,51,4z"/><polygon points="2,10 2,62 10,62 10,18 42.4,18 54,29.6 54,62 62,62 62,10 "/><path d="M12,20v42h40V31H41V20H12z M27.7,53.3l-1.3,1.5L15.5,45l10.8-9.7l1.3,1.5L18.5,45L27.7,53.3z M31,54.2l-2-0.4l4-18l2,0.4  L31,54.2z M48.5,45l-10.8,9.7l-1.3-1.5l9.2-8.3l-9.2-8.3l1.3-1.5L48.5,45z"/><polygon points="43,29 50.6,29 43,21.4 "/><text x="0" y="79" fill="#000000" font-size="5px" font-weight="bold" font-family="'Helvetica Neue', Helvetica, Arial-Unicode, Arial, Sans-serif">Created by I Putu Kharismayadi</text><text x="0" y="84" fill="#000000" font-size="5px" font-weight="bold" font-family="'Helvetica Neue', Helvetica, Arial-Unicode, Arial, Sans-serif">from the Noun Project</text></svg>